<svg xmlns="http://www.w3.org/2000/svg" viewBox="0 0 481.25 428.67"><defs><style>.cls-1{fill:#d2d6dc}</style></defs><g id="Layer_2" data-name="Layer 2"><g id="KarlieFit_Logo" data-name="KarlieFit Logo"><path class="cls-1" d="M159.59 366.77a17 17 0 00-17 17c0 .35 0 .68.05 1a17 17 0 0034-1 16.81 16.81 0 00-.65-4.63 17.06 17.06 0 00-16.4-12.37zM252.69 38.84c5.29-2.1 5.17-7 2.9-10.47-7.82-11.94-18.05-20.78-31.9-25.23a70.56 70.56 0 00-31-2.45c-9.39 1.19-16.94 6.23-23.87 12.3-2.28 2-4.41 4.15-6.66 6.18-1.83 1.66-3.62 2.56-6.44 1.61-2.17-.74-4.83.17-7.23-.09-11-1.18-21.14 3.52-26 12.43-3.13 5.75-4.19 12.15-4.83 18.56-1.2 12-2 24-3.23 35.95a102.58 102.58 0 01-16.25 46.05c-1.53 2.36-3.13 4.68-4.93 7.37a70.3 70.3 0 0021-4.07c7.62-2.6 14.83-5.91 20.48-11.94 6.1-6.5 9.52-14.36 11.26-22.92 2.41-11.87 1.41-23.71-.83-35.55-1.93-10.21-3.3-20.52-1.15-30.9a8.36 8.36 0 011.76-3.67 2.86 2.86 0 014.36-.37 26.12 26.12 0 004.38 2.18 4.84 4.84 0 01-.37 2.19c-6.15 9.54-5.49 19.92-3.85 30.4 1.23 7.84 3 15.51 7.79 22.1 1.83 2.52 3.53 4.57 4.72 5.93a25.6 25.6 0 003.27 3.15c2.28 1.83 6.56 5.2 9.71 7.28 1.74 11.8 2.47 34.46-15 44.14.36 1 8.39 22.84 41.18 30.13 29.73 6.6 23.48-19.82 22.1-24.67-9.34-1.74-23.4-8.3-16.83-32.5a5.39 5.39 0 001.05.35c1.73.41 3.45.82 5.13 1.37l.66.21a105.17 105.17 0 0015.65 3.95c4.1.63 6.22-1.77 6.61-5.94a20.09 20.09 0 01.52-3.81c.44-1.48 1-2.74 3.13-2.8a3.13 3.13 0 002.92-4.11c-.42-1.64-.07-2.42 1.44-3.11 2-.94 2.53-2.3 1.23-4.42-1.46-2.37-.82-3.68 1.86-4.56a19.29 19.29 0 013-.53c4.44-.71 5.73-3.9 3.55-7.87a118.7 118.7 0 01-5.31-11.44c-1.38-3.31-1-6.41 1.76-9.06a5.26 5.26 0 001.36-2.9c1.36-8.83 2.32-17.68-.07-26.52a2.26 2.26 0 01.97-1.93z"/><circle class="cls-1" cx="364.16" cy="144.21" r="17.03"/><circle class="cls-1" cx="364.16" cy="144.21" r="17.03"/><path class="cls-1" d="M364.16 100.82a43.38 43.38 0 00-24.76 79 54.41 54.41 0 01-5.07 9.15c-5.25 8.12-9.67 12.71-15.93 18.81s-23.91 23.58-32.9 41.22a52.34 52.34 0 00-6.6-18.81c-5.59-9.5-5.1-11.36-13.73-29.68-8.5-18 1.15-42.35-32-45.27-4.19 4.95 14.27 30.32 29.28 48.33 17.79 21.36-4.08 47.13-4.08 47.13a82.36 82.36 0 011.11 17.41 25.37 25.37 0 004.83 2.58 60.12 60.12 0 0014.75 11.21c8.31 4.23 11.7 6.26 17.28.49s14.77-12.88 24.42-24.06 19.32-28.14 23.06-46.12 10.85-23.4 15.93-24.41a4.62 4.62 0 011.45-.24c1 0 1.69.07 3 .07a43.4 43.4 0 100-86.79zm0 67.36a24 24 0 1124-24 24 24 0 01-24 24z"/><path class="cls-1" d="M414.39 175.49a46.12 46.12 0 01-3.42 3.83c19.12 1.41 36.08 7.16 35.28 23.29-1.25 24.91-66.56 73.06-164 110.15q-13.06 5-26.88 9.65c.07.14.12.28.19.43-.35-.19-.48-.34-.19-.43-.64-1.36-1.31-2.73-2-4.09-2.77-5.27-1.48-9.71 0-16.12a66.3 66.3 0 001.63-21.7c-27-18-65.62-4.58-81.22 2.17.14.28.27.57.4.85 1.25 2.68 2.36 5.11 3.29 7.35 4.24 10.2 4.94 16.42.06 24.55.45 0-1.74 4.07-5 9.76l-.82 1.4a468.43 468.43 0 01-6 10.06 48.47 48.47 0 0118.4 6.16 49 49 0 0122.76 29.2q12.06-3.17 24.28-7 5.94-1.85 11.79-3.74l6.39-2.09c17.58-5.79 34.52-11.81 50.69-18.07q8.09-3.12 15.9-6.32c83.25-34.1 143.54-74.7 162.44-121.26 14.17-34.91-26.45-40.05-63.97-38.03zM256.88 325.9c0 .1.09.2.13.31-.4-.16-.38-.21-.13-.31zM110.81 382.54a146.9 146.9 0 01-26-23.21c-18.23.86-68.74 1.21-60.27-22.21 3.52-9.75 13.59-20.5 25.3-30.42a29.42 29.42 0 011.48-8C30.31 312.53 9 330.49 1.5 349.85-9.35 378 39.76 392.77 110.82 388.07c0-.93-.09-1.86-.09-2.8s.03-1.83.08-2.73z"/><path class="cls-1" d="M117.73 252.25c1.07-2.88 2.06-5.87 2.89-9 .34-1.29.66-2.61.95-3.94 4.58-21 10.68-13.39 10.68-13.39 37.94-22.39 20.28-66 17.09-73.12-.38.08-.76.16-1.15.22-40 5.76-41 6.78-50.52 34.92l-1.25 5a22.92 22.92 0 00-.49 2.75c-.27 2-1.74 7.34-9.11 18-3 4.31-7.1 14.17-7.1 14.17s-1.53 4.5-2.14 6.64c-2.65 9.39-3.88 18.63-4.83 25.13a39.49 39.49 0 01-1 4.5c-2.64 9.58-9 23.25-11.85 29.11-.86 1.77-1.39 2.84-1.39 2.84a27.68 27.68 0 00-2.12 5.25c-1.33 4.59-2 11.25 3 16.11 5.36 5.25 16 23.84 32.61 41.38a140.15 140.15 0 0019.62 17.41c1.66 1.2 3.37 2.36 5.11 3.47a44.06 44.06 0 00-.36 5.54v.83c0 .52 0 1 .05 1.56A43.41 43.41 0 10162.54 342c-.93-.06-1.87-.1-2.81-.1a43.26 43.26 0 00-29.43 11.51l-.26.25a43.41 43.41 0 00-3.78 4 57.17 57.17 0 01-1.68-3.14c-.35-.68-.7-1.4-1.06-2.19a75.3 75.3 0 01-5.17-15.51c-3-14.24-26.78-36.45-26.78-36.45s.33-3.73 7.12-13.9c.43-.66.9-1.35 1.37-2.05 4.88-7.25 11.5-17 16.47-29.11.41-1 .81-2 1.2-3m41.86 155.51a24 24 0 01-23.87-22.05c-.05-.63-.1-1.26-.1-1.91a24 24 0 1124 24zM471.84 360.49c-7.26-25-36.43-49.59-60.08-66.11l-3 2.17c17.47 14.62 37 33.82 41.18 49.31 7.85 29.25-68.26 16.09-68.26 16.09a758.93 758.93 0 01-75.21-18.85 373.87 373.87 0 01-50 18.82c117.03 43.9 227.53 40.46 215.37-1.43zM67.46 257.18c1.14-7.87 2.87-19.77 6.91-31l.81-2.25c-22.17-19.51-34.41-36.59-34-47.85.72-20.49 28.55-21.89 52.73-19.21A11.54 11.54 0 0195 155.2c-40.22-8-100-13.53-86.79 29.07 8.13 26.19 28.69 51.65 58.7 76 .11-.51.21-1 .27-1.47z"/><path class="cls-1" d="M104.76 287.44a672.44 672.44 0 0061.63 34.73c14.23-12.64 7.91-28.25 4.15-34.89-1-.55-35.5-19.9-49.25-28.86-5.07 12-11.58 21.67-16.32 28.7z"/></g></g></svg>