<svg version="1.1" id="KarlieFit_Logo" xmlns="http://www.w3.org/2000/svg" x="0" y="0" viewBox="0 0 2511 446" xml:space="preserve"><style>.st0{fill:#d2d6dc}</style><path class="st0" d="M2016.7 203.9l17-62.9h111.9l11.4-43h-204.7l-70.8 265.5h91.9l30.7-115.2h109.6l11.9-44.4zM2119.3 363.5h88.8l52.6-195.9h-89.2zM2190.7 98l-13.7 50.7h87.8l13.7-50.7zM2368.8 315l29.3-108.9h71.5l10-37.8H2408l11.5-42.2h-90.7l-11.5 42.2h-37.8l-10 37.8h38.5l-28.5 106.7c-.2 1-.6 2.2-.9 3.7-.4 1.5-.7 2.7-.9 3.7-.2 1.2-.4 2.4-.4 3.5s-.1 2.3-.4 3.5c0 1.5.1 3 .2 4.6.1 1.6.3 3.1.6 4.6.2 1.5.6 3 1.1 4.4.5 1.5.9 2.8 1.1 4.1.5 1.2 1.1 2.3 1.9 3.3.7 1 1.6 2 2.6 3 .7 1 1.5 2 2.4 3 .9 1 1.8 1.9 2.8 2.6 1.5 1 3.1 1.9 4.8 2.8 1.7.9 3.6 1.5 5.6 2 2 .5 4.1.9 6.5 1.1 2.3.2 4.7.4 7.2.4h118.5l10.4-37.8h-65.2c-2.2 0-4.1-.4-5.6-1.1-.5-.2-1-.6-1.5-.9-.5-.4-.9-.8-1.1-1.3-.2-.2-.4-.7-.6-1.5-.1-.7-.3-1.4-.6-1.9.2-.5.4-1.1.4-1.9s.1-1.2.4-1.7z"/><g><path class="st0" d="M938.4 98h-58.9L752.9 216.9 784.7 98h-92.9L621 363.1h92.6l22.6-84.4 29.6-27.8L791 363.5h109.6l-52.9-187.7zM1193.3 228.9c.4-2.3.8-4.6 1.3-6.8s.9-4.6 1.1-7c.2-2.5.4-4.8.4-7v-5.2c0-1.7-.1-3.5-.4-5.2-.2-1.5-.6-3-.9-4.6-.4-1.6-.9-3.1-1.7-4.6-.5-1.5-1.2-3-2-4.6-.9-1.6-1.8-3-2.8-4.3-1-1.2-2.2-2.5-3.7-3.7-1.5-1.2-3-2.2-4.4-3-1.5-.7-3.1-1.5-5-2.2-1.9-.7-3.6-1.4-5.4-1.9-2-.2-4.1-.5-6.5-.7-2.3-.2-4.8-.4-7.2-.4H985.7l-10 38.1h122.2c1.5 0 2.8.4 4.1 1.1.7.5 1.4 1 1.9 1.5l1.5 1.5c.5.5.9 1.1 1.1 1.7.2.6.5 1.3.7 2 .5 1.5.5 3 0 4.4-.2.5-.6 1.1-.9 1.9-.4.7-.8 1.5-1.3 2.2-.5.7-1.1 1.5-1.7 2.2-.6.7-1.2 1.2-1.7 1.5-1 .7-2 1.5-3 2.4-1 .9-2 1.4-3 1.7-.7.5-1.7.9-2.8 1.1-1.1.2-2 .4-2.8.4h-91.8c-4.2 0-8.3.4-12.2 1.1-4 .7-7.7 1.9-11.1 3.3-2 .7-4 1.7-5.9 3-2 1.2-3.8 2.6-5.6 4.1-1.5 1.2-3 2.7-4.6 4.3-1.6 1.6-3 3.3-4.3 5-1 1.5-2.1 3.2-3.3 5.2-1.2 2-2.2 3.8-3 5.6-1 2-1.9 3.9-2.8 5.7-.9 1.9-1.7 3.8-2.4 5.7-.5 2-1.1 4-1.9 6.1-.7 2.1-1.4 4-1.9 5.7-.5 1.7-1.1 3.6-1.7 5.6-.6 2-1.1 3.8-1.3 5.6-.5 1.7-1 3.6-1.5 5.7s-1 4.1-1.5 6.1c-.2 2-.6 4.1-1.1 6.3-.5 2.2-.9 4.3-1.1 6.3-.2 2-.4 4-.6 6.1-.1 2.1-.2 4.1-.2 6.1s.1 3.9.4 5.7c.2 1.9.6 3.5 1.1 5 .5 1.5 1.1 3 1.7 4.4s1.3 2.7 2 3.7c1 1.2 2 2.3 3.1 3.1 1.1.9 2.3 1.7 3.5 2.4 1.5.7 3 1.4 4.4 2 1.5.6 3.1 1.1 4.8 1.3 3.2.7 7 1.1 11.5 1.1h82.6c1.7 0 3.5-.2 5.4-.6 1.9-.4 3.5-.7 5-.9 1.7-.5 3.5-1.2 5.2-2 1.7-.9 3.3-1.9 4.8-3.1.5-.2 1.1-.7 1.9-1.5l1.9-1.9c.5-.2 1.1-.7 1.9-1.5.7-.7 1.4-1.5 1.9-2.2.2-.2.7-.7 1.3-1.5.6-.7 1.2-1.4 1.7-1.9.2-.2.6-.7 1.1-1.5.5-.7.7-1.5.7-2.2v20.7h79.2l34.1-127.4c1-1.8 1.5-3.9 1.9-6.3zm-112 84.3c0 .5-.2 1.1-.7 1.9-.5.7-1 1.5-1.5 2.2-.2.5-.7 1.1-1.3 1.9-.6.7-1.2 1.2-1.7 1.5-.7.5-1.5 1.1-2.4 1.9-.9.7-1.8 1.2-2.8 1.5-.7.5-1.5.8-2.2.9-.7.1-1.4.2-1.9.2h-35.9c-.5 0-1.2-.1-2-.4-.9-.2-1.5-.6-2-1.1-.7-.2-1.4-.7-2-1.5-.6-.7-1.2-1.4-1.7-1.9-.2-.5-.4-1.1-.6-1.9-.1-.7-.3-1.5-.6-2.2v-1.9c0-.8.1-1.4.4-1.9l7.4-27.8c.2-.7.6-1.6 1.1-2.6.5-1 1.1-2 1.9-3 .5-.7 1.2-1.5 2-2.4l2.4-2.4c1-.7 2-1.4 3.1-2 1.1-.6 2.2-1.2 3.1-1.7.7-.2 1.7-.6 2.8-.9 1.1-.4 2.2-.6 3.1-.6h43.7l-11.7 44.2zM1415.7 168.7H1362c-.7 0-1.5.1-2.4.2-.9.1-1.7.3-2.4.6-.7 0-1.6.1-2.6.4-1 .2-1.9.5-2.6.7-.7.2-1.5.6-2.4 1.1-.9.5-1.8.9-2.8 1.1-.7.5-1.5 1-2.4 1.5-.9.5-1.7.9-2.4 1.1-.5.2-1.1.6-1.9 1.1-.7.5-1.5.9-2.2 1.1-.5.5-1.1 1-1.7 1.5-.6.5-1.2.9-1.7 1.1-1.2.7-2.4 1.6-3.5 2.6s-2 2-2.8 3l4.4-17.4h-90l-52.2 195.2h90l31.5-117.4c.2-1 .6-2 1.1-3.1.5-1.1 1.1-2.2 1.9-3.1.2-.7.7-1.5 1.5-2.4.7-.9 1.6-1.7 2.6-2.4l2.2-2.2c.7-.7 1.5-1.4 2.2-1.9.7-.2 1.6-.6 2.6-1.1 1-.5 1.9-1 2.6-1.5 1.7-.7 3.6-1.5 5.6-2.2 2-.7 4.1-1.4 6.3-1.9 2-.2 4.1-.6 6.5-.9 2.3-.4 4.6-.6 6.9-.6h47.4l14.4-54.2zM1455.7 98l-70.8 265.5h90L1546 98zM1554.9 167.6l-52.2 195.9h88.9l52.6-195.9zM1560.5 148.7h87.7l13.7-50.7h-87.7zM1728.2 286.9h150.7l18.9-69.2c.5-2.2 1-4.5 1.5-6.8s.9-4.5 1.1-6.5c.2-1.5.4-3 .4-4.6v-4.3c0-1.2-.2-2.6-.6-4.1s-.7-2.7-.9-3.7c-.5-1.5-1.1-3-1.9-4.4-.7-1.5-1.6-2.8-2.6-4.1-.7-1-1.7-2-2.8-3.1-1.1-1.1-2.3-2-3.5-2.8-1.7-1-3.6-1.8-5.6-2.4-2-.6-3.8-1.2-5.6-1.7-2-.2-4-.5-6.1-.7-2.1-.2-4.3-.4-6.5-.4h-150c-1.5 0-3.1.1-5 .4-1.8.2-3.6.5-5.4.7-1.7.2-3.5.6-5.4 1.1-1.8.5-3.5 1-5 1.5-1.7.5-3.5 1.2-5.4 2.2-1.9 1-3.5 2-5 3s-3 2.2-4.4 3.7l-4.4 4.4c-1 1.2-2.2 2.7-3.5 4.4-1.4 1.7-2.5 3.5-3.5 5.2-1 1.7-2 3.6-3 5.6-1 2-2 4-3 5.9-.2 1.2-.7 2.5-1.3 3.9-.6 1.4-1.2 2.7-1.7 3.9-.2 1.2-.6 2.6-1.1 4.1-.5 1.5-1 3-1.5 4.4l-23.3 87.8c-.2 1.5-.5 3-.7 4.6-.2 1.6-.6 3.1-1.1 4.6-.2 1.2-.4 2.5-.6 3.9-.1 1.4-.3 2.7-.6 3.9v10.4c0 1.5.1 2.9.4 4.3.2 1.4.6 2.5 1.1 3.5.5 1.5 1.1 3 1.9 4.4.7 1.5 1.5 2.7 2.2 3.7.7 1 1.7 2 3 3 1.2 1 2.5 1.7 3.7 2.2 1.5.7 3.1 1.5 4.8 2.2 1.7.7 3.5 1.2 5.2 1.5 1.7.2 3.6.4 5.6.6 2 .1 3.8.2 5.6.2h186.3l10.4-38.1h-124.8c-1 0-2-.1-3-.4-1-.2-1.9-.6-2.6-1.1-.7-.2-1.5-.8-2.4-1.7-.9-.9-1.5-1.7-2-2.4s-1.1-1.6-1.7-2.6c-.6-1-.9-2-.9-3-.2-1-.4-2-.4-3s.1-2 .4-3l5.6-21.1zm18.9-68.9c.2-1.2 1-2.6 2.2-4.1.5-.5 1-1.1 1.7-1.9.6-.7 1.2-1.4 1.7-1.9.5-.2 1.1-.6 1.9-1.1.7-.5 1.5-1 2.2-1.5.5-.2 1-.5 1.7-.7.6-.2 1.3-.4 2-.4h43c.5 0 1 .1 1.7.4.6.2 1.2.5 1.7.7l1.5 1.5c.5.5.9 1 1.1 1.5.2.5.5 1.1.7 1.9s.5 1.5.7 2.2v1.9c0 .7-.1 1.4-.4 1.9l-8.1 30.7H1739l8.1-31.1z"/></g><g><path class="st0" d="M176.2 376c-9.4 0-17 7.6-17 17 0 .3 0 .7.1 1 .5 8.9 7.9 16 17 16 9.4 0 17-7.6 17-17 0-1.6-.2-3.2-.7-4.6-2.1-7.2-8.6-12.4-16.4-12.4zM269.3 48c5.3-2.1 5.2-7 2.9-10.5-7.8-11.9-18.1-20.8-31.9-25.2-10.2-3.3-20.6-3.8-31-2.4-9.4 1.2-16.9 6.2-23.9 12.3-2.3 2-4.4 4.1-6.7 6.2-1.8 1.7-3.6 2.6-6.4 1.6-2.2-.7-4.8.2-7.2-.1-11-1.2-21.1 3.5-26 12.4-3.1 5.8-4.2 12.2-4.8 18.6-1.2 12-2 24-3.2 36-1.7 16.6-7.1 32-16.2 46-1.5 2.4-3.1 4.7-4.9 7.4 7.5-.2 14.4-1.8 21-4.1 7.6-2.6 14.8-5.9 20.5-11.9 6.1-6.5 9.5-14.4 11.3-22.9 2.4-11.9 1.4-23.7-.8-35.6-1.9-10.2-3.3-20.5-1.1-30.9.3-1.3.9-2.7 1.7-3.7 1.2-1.3 2.7-1.7 4.4-.4 1.1.9 2.5 1.3 4.4 2.2-.1.4.1 1.5-.4 2.2-6.1 9.5-5.5 19.9-3.8 30.4 1.2 7.8 3 15.5 7.8 22.1 1.8 2.5 3.5 4.6 4.7 5.9 1 1.1 2.1 2.2 3.3 3.1 2.3 1.8 6.6 5.2 9.7 7.3 1.7 11.8 2.5 34.5-15 44.1.4 1 8.4 22.8 41.2 30.1 29.7 6.6 23.5-19.8 22.1-24.7-9.3-1.7-23.4-8.3-16.8-32.5.3.1.7.3 1.1.3 1.7.4 3.4.8 5.1 1.4.2.1.4.1.7.2 5.1 1.6 10.4 3.1 15.6 3.9 4.1.6 6.2-1.8 6.6-5.9.1-1.3.2-2.6.5-3.8.4-1.5 1-2.7 3.1-2.8 2.2-.1 3.5-2 2.9-4.1-.4-1.6-.1-2.4 1.4-3.1 2-.9 2.5-2.3 1.2-4.4-1.5-2.4-.8-3.7 1.9-4.6.9-.3 2-.4 3-.5 4.4-.7 5.7-3.9 3.6-7.9-2-3.7-3.7-7.6-5.3-11.4-1.4-3.3-1-6.4 1.8-9.1.7-.7 1.2-1.9 1.4-2.9 1.4-8.8 2.3-17.7-.1-26.5-.6-.4.1-1.6.6-1.8z"/><circle class="st0" cx="380.8" cy="153.4" r="17"/><circle class="st0" cx="380.8" cy="153.4" r="17"/><path class="st0" d="M380.8 110c-24 0-43.4 19.4-43.4 43.4 0 14.8 7.4 27.8 18.6 35.6-.5 1.4-1.8 4.1-5.1 9.1-5.2 8.1-9.7 12.7-15.9 18.8-6.3 6.1-23.9 23.6-32.9 41.2 0 0-1-9.3-6.6-18.8s-5.1-11.4-13.7-29.7c-8.5-18 1.2-42.3-32-45.3-4.2 5 14.3 30.3 29.3 48.3 17.8 21.4-4.1 47.1-4.1 47.1 1.2 7.5 1.4 13.2 1.1 17.4 1.7 1.1 3.4 2.1 4.8 2.6 0 0 6.4 7 14.7 11.2 8.3 4.2 11.7 6.3 17.3.5 5.6-5.8 14.8-12.9 24.4-24.1 9.7-11.2 19.3-28.1 23.1-46.1 3.7-18 10.9-23.4 15.9-24.4.4-.1.5-.2 1.4-.2 1 0 1.7.1 3 .1 24 0 43.4-19.4 43.4-43.4.1-23.9-19.4-43.3-43.3-43.3zm0 67.4c-13.2 0-24-10.7-24-24 0-13.2 10.7-24 24-24 13.2 0 24 10.7 24 24-.1 13.2-10.8 24-24 24z"/><path class="st0" d="M431 184.7c-1 1.2-2.1 2.5-3.4 3.8 19.1 1.4 36.1 7.2 35.3 23.3-1.2 24.9-66.6 73.1-164 110.2-8.7 3.3-17.7 6.5-26.9 9.6.1.1.1.3.2.4-.4-.2-.5-.3-.2-.4-.6-1.4-1.3-2.7-2-4.1-2.8-5.3-1.5-9.7 0-16.1 1.2-5.3 2.5-12 1.7-21.7-27-18-65.6-4.6-81.2 2.2.1.3.3.6.4.9 1.3 2.7 2.4 5.1 3.3 7.3 4.2 10.2 4.9 16.4.1 24.6.5 0-1.7 4.1-5 9.8-.3.5-.5.9-.8 1.4-1.8 3.1-3.8 6.5-5.9 10.1 6.6.8 12.9 3 18.4 6.2 4.4 2.5 8.3 5.7 11.7 9.4 5.1 5.6 8.9 12.3 11 19.7 8-2.1 16.1-4.4 24.3-7 4-1.2 7.9-2.5 11.8-3.7 2.1-.7 4.3-1.4 6.4-2.1 17.6-5.8 34.5-11.8 50.7-18.1 5.4-2.1 10.7-4.2 15.9-6.3 83.3-34.1 143.5-74.7 162.4-121.3 13.9-35-26.7-40.1-64.2-38.1zM273.5 335.1c0 .1.1.2.1.3-.4-.2-.4-.3-.1-.3zM127.4 391.7c-10-6.8-18.6-15-26-23.2-18.2.9-68.7 1.2-60.3-22.2 3.5-9.8 13.6-20.5 25.3-30.4.1-2.8.7-5.6 1.5-8-21 13.8-42.3 31.8-49.8 51.1-10.8 28.1 38.3 42.9 109.3 38.2-.1-.9-.1-1.9-.1-2.8 0-.9.1-1.8.1-2.7z"/><path class="st0" d="M134.3 261.4c1.1-2.9 2.1-5.9 2.9-9 .3-1.3.7-2.6 1-3.9 4.6-21 10.7-13.4 10.7-13.4 37.9-22.4 20.3-66 17.1-73.1-.4.1-.8.2-1.1.2-40 5.8-41 6.8-50.5 34.9l-1.2 5c-.2.9-.4 1.8-.5 2.7-.3 2-1.7 7.3-9.1 18-3 4.3-7.1 14.2-7.1 14.2s-1.5 4.5-2.1 6.6c-2.7 9.4-3.9 18.6-4.8 25.1-.2 1.3-.5 2.9-1 4.5-2.6 9.6-9 23.2-11.8 29.1l-1.4 2.8s-1.2 2.1-2.1 5.2c-1.3 4.6-2 11.3 3 16.1 5.4 5.2 16 23.8 32.6 41.4 5.8 6.1 12.3 12.1 19.6 17.4 1.7 1.2 3.4 2.4 5.1 3.5-.2 1.8-.4 3.7-.4 5.5V396.6c1.3 23.8 21.7 42.4 46.1 40.9 21.2-1.3 38.5-18.3 40.4-39.4.5-5.5-.1-10.8-1.5-15.8-2.2-7.7-6.5-14.6-12.2-19.9-4-3.7-8.7-6.7-13.8-8.7-4-1.6-8.4-2.6-12.9-2.8-.9-.1-1.9-.1-2.8-.1-11.4 0-21.7 4.4-29.4 11.5-.1.1-.2.2-.3.2-1.3 1.3-2.6 2.6-3.8 4-.5-.8-1.1-1.9-1.7-3.1-.3-.7-.7-1.4-1.1-2.2-1.8-4-3.8-9.2-5.2-15.5-3.1-14.2-26.8-36.4-26.8-36.4s.3-3.7 7.1-13.9c.4-.7.9-1.3 1.4-2.1 4.9-7.2 11.5-17 16.5-29.1.4-.7.8-1.7 1.1-2.8m41.9 155.5c-12.6 0-22.9-9.7-23.9-22-.1-.6-.1-1.3-.1-1.9 0-13.2 10.8-24 24-24 11.1 0 20.5 7.6 23.2 17.9.5 1.9.8 4 .8 6.1 0 13.2-10.8 23.9-24 23.9z"/><g><path class="st0" d="M488.5 369.7c-7.3-25-36.4-49.6-60.1-66.1l-3 2.2c17.5 14.6 37 33.8 41.2 49.3 7.9 29.2-68.3 16.1-68.3 16.1-25.9-5.1-51.1-11.5-75.2-18.9-21.5 9.9-40 15.9-50 18.8 117 43.9 227.6 40.5 215.4-1.4zM84.1 266.4c1.1-7.9 2.9-19.8 6.9-31l.8-2.2c-22.2-19.5-34.4-36.6-34-47.9.7-20.5 28.5-21.9 52.7-19.2.4-.7.7-1.2 1.1-1.7-40.2-8-100-13.5-86.8 29.1 8.1 26.2 28.7 51.6 58.7 76l.3-1.5.3-1.6zM121.4 296.6c18.5 11.9 39.2 23.5 61.6 34.7 14.2-12.6 7.9-28.2 4.2-34.9-1-.6-35.5-19.9-49.3-28.9-5.1 12-11.6 21.7-16.3 28.7-.1.2-.2.3-.2.4z"/></g></g></svg>